<svg width="28" height="28" viewBox="0 0 28 28" fill="none" xmlns="http://www.w3.org/2000/svg">
<path d="M18.2779 24.5001C21.714 24.5001 24.5001 21.7183 24.5001 18.2779C24.5001 14.8375 21.714 12.0557 18.2779 12.0557C14.8418 12.0557 12.0557 14.8375 12.0557 18.2779C12.0557 21.7183 14.8418 24.5001 18.2779 24.5001Z" fill="white" stroke="white" stroke-width="2" stroke-linecap="round" stroke-linejoin="round"/>
<path d="M18.2783 2.72217H19.0561C21.2039 2.72217 22.945 4.4633 22.945 6.61106V8.94439L25.6672 6.22217" stroke="white" stroke-width="2" stroke-linecap="round" stroke-linejoin="round"/>
<path d="M9.72287 25.2779H8.9451C6.79734 25.2779 5.05621 23.5368 5.05621 21.389V19.0557L2.33398 21.7779" stroke="white" stroke-width="2" stroke-linecap="round" stroke-linejoin="round"/>
<mask id="path-4-inside-1_164_813" fill="white">
<path d="M15.5761 7.74208C14.7457 5.28492 12.4595 3.5 9.72222 3.5C6.286 3.5 3.5 6.286 3.5 9.72222C3.5 12.4597 5.28514 14.7459 7.74199 15.5761"/>
</mask>
<path d="M15.5761 7.74208C14.7457 5.28492 12.4595 3.5 9.72222 3.5C6.286 3.5 3.5 6.286 3.5 9.72222C3.5 12.4597 5.28514 14.7459 7.74199 15.5761" fill="white"/>
<path d="M13.6814 8.38236C14.035 9.4288 15.1699 9.99044 16.2164 9.63682C17.2628 9.2832 17.8244 8.14823 17.4708 7.10179L15.5761 7.74208L13.6814 8.38236ZM7.1017 17.4708C8.14814 17.8244 9.28311 17.2628 9.63673 16.2164C9.99034 15.1699 9.4287 14.035 8.38227 13.6813L7.74199 15.5761L7.1017 17.4708ZM15.5761 7.74208L17.4708 7.10179C16.3817 3.8787 13.3657 1.5 9.72222 1.5V3.5V5.5C11.5534 5.5 13.1098 6.69114 13.6814 8.38236L15.5761 7.74208ZM9.72222 3.5V1.5C5.18143 1.5 1.5 5.18143 1.5 9.72222H3.5H5.5C5.5 7.39057 7.39057 5.5 9.72222 5.5V3.5ZM3.5 9.72222H1.5C1.5 13.3659 3.87896 16.3818 7.1017 17.4708L7.74199 15.5761L8.38227 13.6813C6.69132 13.1099 5.5 11.5535 5.5 9.72222H3.5Z" fill="white" mask="url(#path-4-inside-1_164_813)"/>
</svg>
